<svg width="153" height="22" viewBox="0 0 153 22" fill="none" xmlns="http://www.w3.org/2000/svg">
<g clip-path="url(#clip0_1740_341)">
<path d="M33.7003 0.376617H24.7334V21.5359H28.9962V15.0153H33.2616C38.3399 15.0153 41.6325 12.1304 41.6325 7.67917C41.6325 3.22797 38.5257 0.376617 33.7003 0.376617ZM33.4165 11.3795H28.9962V4.01241H33.321C35.953 4.01241 37.5529 5.39293 37.5529 7.67917C37.5529 9.96541 35.8911 11.3795 33.4242 11.3795H33.4165ZM45.4928 21.5359H60.5701V17.6808H49.7814V0.376617H45.485L45.4928 21.5359ZM64.2394 21.5359H80.2895V17.6808H68.4945V12.7574H78.5271V8.99775H68.4945V4.16981H80.1244V0.376617H64.2317L64.2394 21.5359ZM94.4843 21.9333C100.755 21.9333 105.456 17.2318 105.456 10.9614C105.456 4.69106 100.879 -0.00012207 94.4843 -0.00012207C88.214 -0.00012207 83.5125 4.70138 83.5125 10.9718C83.5125 17.2421 88.0875 21.9333 94.4843 21.9333ZM94.4843 18.0782C90.6911 18.0782 87.7753 15.0049 87.7753 10.9305C87.7753 6.85602 90.6911 3.78275 94.4843 3.78275C98.2775 3.78275 101.193 6.85602 101.193 10.9305C101.193 15.0049 98.3085 18.0782 94.4843 18.0782Z" fill="#00856F"/>
<path d="M127.387 21.536H128.265V0.376643H123.971V12.9148L110.052 0.219238H109.175V21.536H113.438V8.93327L127.387 21.536Z" fill="#00856F"/>
<path d="M148.203 21.536H153L142.214 0.219238H141.336L130.648 21.536H135.381L136.857 18.3079H146.727L148.203 21.536ZM141.713 7.67919L145.21 14.796H138.369L141.713 7.67919Z" fill="#00856F"/>
<path d="M17.5468 21.536H22.3515L11.568 0.219238H10.6906L0 21.536H4.73246L6.20846 18.3079H16.0785L17.5468 21.536ZM11.0648 7.67919L14.5612 14.796H7.72315L11.0648 7.67919Z" fill="#00856F"/>
</g>
<defs>
<clipPath id="clip0_1740_341">
<rect width="153" height="21.9438" fill="white"/>
</clipPath>
</defs>
</svg>
