<svg width="160" height="31" viewBox="0 0 160 31" fill="none" xmlns="http://www.w3.org/2000/svg">
<g clip-path="url(#clip0_1740_337)">
<path fill-rule="evenodd" clip-rule="evenodd" d="M81.7166 0L75.3487 0.764086V30.5521H81.7166V28.7843C82.5754 29.3926 83.4096 30.1243 84.3869 30.4713C88.0972 31.7908 92.9907 30.7157 94.7024 25.7918C95.8012 22.6331 95.7727 19.3946 94.9453 16.2003C94.028 12.6518 91.6478 10.6929 87.9602 10.3031C85.5557 10.0483 83.4752 10.7706 81.7166 12.869V12.2169V0.888835V0.764086V0ZM147.379 0.0184283L141.011 0.783931V30.5719H147.379V21.4554L153.246 30.5847H160L153.634 20.6743L160 10.7964H153.246L147.379 19.8974V0.908681V0.783932V0.0184283ZM12.3 0.0482011C9.39641 0.0147194 5.36291 0.798565 4.21763 5.15297C4.21763 5.15443 4.21697 5.15718 4.21478 5.15864C4.21112 5.17388 4.20701 5.18876 4.20334 5.204C3.91513 6.07497 3.93537 10.0638 3.93903 10.5654H0V15.8998H4.18334V30.4089H10.2755V15.8998H14.9346L15.4589 10.5654H14.936H10.3912V7.56714C10.7233 4.73213 15.4418 5.27063 15.4418 5.27063L15.4433 5.07642L15.4418 5.05515V0.398343V0.396891H15.4375C15.3766 0.382469 14.0421 0.0682523 12.3 0.0481626L12.3 0.0482011ZM23.5727 10.2223C20.1755 10.2239 17.1956 12.3639 16.1133 15.8686C15.2947 18.5193 15.2834 21.2464 15.7633 23.9305C16.7998 29.7435 21.1572 31.6902 25.8016 30.7307C27.2266 30.436 28.2853 29.5566 29.2677 28.3307C29.2677 28.3307 29.3566 28.2222 29.4648 28.0132V30.5719H35.407V10.588H29.4648V13.1185H29.4634C29.3888 13.0364 29.3156 12.9563 29.252 12.8902C29.2417 12.8801 29.2336 12.8706 29.2234 12.8605C29.1349 12.769 29.0734 12.7088 29.0734 12.7088C27.6389 11.2615 27.0966 10.9012 25.973 10.5724C25.1628 10.3357 24.3567 10.2219 23.5727 10.2223V10.2223ZM128.916 10.2294C127.805 10.2307 126.693 10.3785 125.589 10.6703C122.284 11.5442 120.069 13.6195 119.355 16.9205C118.965 18.7227 118.888 20.6366 118.991 22.4846C119.225 26.7102 121.86 29.7215 125.946 30.6556C126.004 30.6693 126.064 30.6795 126.122 30.6925H126.123C126.124 30.6927 126.133 30.6947 126.15 30.6981C126.308 30.7293 126.465 30.7585 126.623 30.7818C126.676 30.7868 126.729 30.7916 126.782 30.7945C126.783 30.796 126.785 30.796 126.786 30.796C126.986 30.8323 127.223 30.86 127.472 30.8796C128.274 30.9638 129.294 31.0244 130.142 30.925C130.147 30.9235 130.15 30.9236 130.155 30.9221C130.2 30.9214 130.242 30.9215 130.284 30.9193C134.505 30.7008 137.709 28.0592 138.643 24.0099C139.156 21.7882 139.156 19.5548 138.662 17.3316C137.883 13.8419 135.752 11.5973 132.247 10.6675C131.141 10.3735 130.028 10.2282 128.917 10.2295L128.916 10.2294ZM107.198 10.2337C106.087 10.2351 104.976 10.3828 103.872 10.6746C100.566 11.5477 98.3496 13.6231 97.6356 16.9248C97.2457 18.7262 97.1682 20.6417 97.2713 22.4888C97.5068 26.7145 100.14 29.725 104.228 30.6599C104.284 30.6736 104.344 30.6838 104.402 30.6967H104.404C104.404 30.6969 104.415 30.6989 104.432 30.7024C104.589 30.7336 104.747 30.7621 104.905 30.786C104.958 30.7904 105.012 30.7951 105.064 30.8002H105.068C105.266 30.8365 105.504 30.8628 105.754 30.8824C106.554 30.9666 107.573 31.0272 108.423 30.9278C108.429 30.9278 108.431 30.9271 108.436 30.9263C108.479 30.9256 108.524 30.925 108.567 30.9221C112.788 30.7043 115.99 28.0634 116.925 24.0127C117.438 21.791 117.437 19.559 116.941 17.3358C116.165 13.8461 114.032 11.6007 110.527 10.6702C109.421 10.3767 108.31 10.2323 107.198 10.2336L107.198 10.2337ZM47.194 10.2734C46.6882 10.2907 46.1798 10.3278 45.6696 10.3811C41.3683 10.8319 38.4499 13.3514 37.6401 17.5088C37.2151 19.6964 37.2336 21.9108 37.7215 24.1049C38.4523 27.3906 40.4604 29.5135 43.7236 30.4628C45.8531 31.082 48.0347 31.1136 50.2058 30.7775C51.1188 30.636 52.4291 30.1652 53.3691 29.8306L53.7262 29.7058L53.5576 29.1402C53.2819 28.1393 52.9683 27.151 52.6647 26.1973L52.3775 25.1369C52.3775 25.1369 44.9296 28.6858 43.7679 21.9445C43.6604 20.8318 43.6936 19.6829 43.8479 18.5848C44.1376 16.5126 45.4113 15.4025 47.4384 15.2123C48.1231 15.1477 48.8362 15.1806 49.5143 15.2945C50.4375 15.4491 51.3387 15.7246 52.3489 15.9721C52.7001 14.9059 53.059 13.8515 53.3933 12.7896C53.446 12.6234 53.4904 12.4801 53.5248 12.3516L53.6919 11.7137C53.6503 11.6288 53.5494 11.5413 53.4133 11.4557C53.2422 11.3134 52.9504 11.1959 52.4947 11.0304C52.3125 10.9643 52.1289 10.9056 51.946 10.8489C51.7822 10.7974 51.676 10.7667 51.676 10.7667C50.2084 10.3503 48.7117 10.2214 47.194 10.2734ZM64.2675 10.3131C63.5384 10.3085 62.8073 10.3501 62.0901 10.418C58.164 10.7896 55.1829 13.2165 54.5721 16.8681C54.2012 19.0832 54.1535 21.4338 54.4535 23.6584C54.9063 27.0051 56.5486 29.1375 59.3898 30.1609H59.3912C59.4036 30.1616 59.4173 30.1637 59.4298 30.1652L59.4283 30.1666C60.7253 30.5513 67.0716 32.1989 72.667 29.4096L72.4427 28.5917C72.4405 28.5931 72.4361 28.5931 72.4341 28.5931C72.1752 27.503 71.8645 26.4247 71.5712 25.344L71.5397 25.2391C71.5397 25.2391 71.4231 25.2801 71.2168 25.3454C71.2124 25.3461 71.2069 25.3461 71.2025 25.3469C70.9582 25.41 70.7167 25.4839 70.4767 25.5637C70.4321 25.5783 70.3885 25.5918 70.3439 25.6049C69.4968 25.8415 68.285 26.1333 67.0063 26.2966C65.9332 26.4041 64.8503 26.408 63.756 26.3151C61.9791 26.0233 60.6191 25.0788 60.6842 22.8462H61.6986C65.1821 22.8462 68.6656 22.8469 72.1498 22.8462C72.2325 22.8462 72.3157 22.8462 72.3984 22.8448V22.8462C72.3984 22.8462 73.147 22.8379 73.1785 22.8306C73.1785 22.8306 73.1778 22.6348 73.1785 22.6109L73.1656 21.3223C73.1371 19.9389 73.156 18.548 72.9585 17.1886C72.4149 13.4608 70.1284 11.1024 66.4291 10.4862C65.7232 10.369 64.9965 10.3178 64.2674 10.3132L64.2675 10.3131ZM63.9917 14.5716C64.676 14.5534 65.3649 14.7282 66.0291 15.0932C67.3722 15.8292 67.4766 17.1597 67.4378 18.5975H60.5585C60.5943 17.2395 60.765 15.9767 61.9815 15.2081C62.6274 14.8009 63.3074 14.5897 63.9917 14.5716ZM129.034 15.1953C130.769 15.2287 132.009 16.2062 132.451 17.8646C132.85 19.5326 132.554 22.5012 132.514 22.8801C132.493 23.0122 132.471 23.14 132.441 23.2699C132.017 25.1338 130.654 26.1425 128.835 26.0598C126.879 25.9691 125.538 24.8343 125.349 22.8957C125.213 21.4796 125.2 20.0335 125.319 18.616C125.508 16.3776 126.917 15.1539 129.034 15.1953H129.034ZM85.2385 15.1968C87.1558 15.1343 88.6065 16.0786 88.8917 18.0093C89.1449 19.7106 89.1575 21.5035 88.9117 23.2034C88.6316 25.1674 87.0561 26.1957 85.1856 26.0513C84.7181 26.015 84.2951 25.9208 83.9154 25.7735C82.4078 24.9148 81.9519 23.4768 81.8195 22.5739C81.818 22.5747 81.8165 22.5746 81.8165 22.5754C81.7134 21.1782 81.6026 18.2571 82.2895 16.8766C82.8725 15.8184 83.8887 15.2411 85.2384 15.1968L85.2385 15.1968ZM25.633 15.1982C27.3857 15.2374 28.7358 16.266 28.9334 18.0674C29.1184 19.7528 29.1226 21.4876 28.9405 23.1736C28.7416 25.0215 27.2356 26.1324 25.4544 26.0627C23.6293 25.9923 22.4212 25.0218 22.0269 23.2842C21.5543 20.8121 22.1072 17.8745 22.154 17.6365C22.631 15.9773 23.8481 15.1568 25.633 15.1982H25.633ZM107.314 15.1997C109.053 15.233 110.291 16.2105 110.733 17.869C111.134 19.5376 110.837 22.5034 110.797 22.883C110.776 23.0144 110.753 23.1451 110.723 23.2743C110.3 25.1382 108.936 26.1469 107.117 26.0627C105.161 25.9742 103.819 24.8394 103.631 22.9001C103.495 21.4833 103.484 20.0364 103.602 18.6189C103.788 16.3812 105.198 15.1583 107.314 15.1997H107.314Z" fill="#00856F"/>
</g>
<defs>
<clipPath id="clip0_1740_337">
<rect width="160" height="31" fill="white"/>
</clipPath>
</defs>
</svg>
