<svg width="123" height="33" viewBox="0 0 123 33" fill="none" xmlns="http://www.w3.org/2000/svg">
<g clip-path="url(#clip0_1740_348)">
<path d="M90.6172 2.33329C90.6172 1.04539 91.6885 0.00012207 93.0093 0.00012207H120.59C121.912 0.00012207 122.983 1.04539 122.983 2.33329V30.2378C122.983 31.5261 121.912 32.5705 120.59 32.5705H93.0093C91.6885 32.5705 90.6172 31.5261 90.6172 30.2382V2.33286V2.33329Z" fill="#00856F"/>
<path d="M0.0166016 27.2826H13.5235V22.8478H4.90549V5.92997H0.0166016V27.2826ZM20.362 27.2826V12.5754H15.4735V27.2826H20.362ZM17.9182 10.5677C19.6226 10.5677 20.6837 9.43827 20.6837 8.02606C20.652 6.5831 19.6226 5.48572 17.9507 5.48572C16.2783 5.48572 15.1848 6.58353 15.1848 8.02606C15.1848 9.43827 16.2458 10.5677 17.8862 10.5677H17.9182ZM22.6315 27.2826H27.52V19.0691C27.52 18.6296 27.5516 18.19 27.681 17.8769C28.0339 16.9986 28.8382 16.0888 30.1889 16.0888C31.9582 16.0888 32.666 17.4378 32.666 19.4138V27.2822H37.5536V18.8495C37.5536 14.3319 35.1419 12.2298 31.9253 12.2298C29.2884 12.2298 28.1304 13.7039 27.4871 14.7082H27.52V12.5754H22.6315C22.696 13.9555 22.6315 27.2826 22.6315 27.2826ZM44.4502 5.92997H39.5617V27.2826H44.4502V22.5142L45.6719 20.976L49.4993 27.2826H55.5129L49.0815 18.1528L54.709 11.9419H48.8244C48.8244 11.9419 44.8043 17.4984 44.4502 18.158V5.92997Z" fill="#00856F"/>
<path d="M68.5869 21.1476C68.6514 20.77 68.748 20.0455 68.748 19.2262C68.748 15.4244 66.8181 11.5646 61.7369 11.5646C56.3017 11.5646 53.793 15.8631 53.793 19.7619C53.793 24.5837 56.8485 27.5948 62.1867 27.5948C64.3097 27.5948 66.2709 27.2821 67.8796 26.623L67.2362 23.3945C65.9172 23.8319 64.5665 24.051 62.8946 24.051C60.6114 24.051 58.6178 23.1134 58.4567 21.116L68.5869 21.1467V21.1476ZM58.4247 17.8405C58.5533 16.5855 59.3901 14.7337 61.4802 14.7337C63.6989 14.7337 64.2141 16.7106 64.2141 17.8405H58.4251H58.4247ZM80.8141 5.92987V13.3215H80.7496C80.0418 12.2869 78.5625 11.5966 76.6018 11.5966C72.8385 11.5966 69.5263 14.6081 69.5579 19.7529C69.5579 24.5218 72.5493 27.6277 76.2793 27.6277C78.3058 27.6277 80.2348 26.7486 81.2002 25.0544H81.2964L81.4899 27.2825H85.8311C85.767 26.2471 85.7021 24.459 85.7021 22.702V5.92944H80.8137L80.8141 5.92987ZM80.8141 20.4748C80.8141 20.8507 80.782 21.2279 80.7171 21.5406C80.4288 22.8904 79.2707 23.8306 77.8555 23.8306C75.8299 23.8306 74.5108 22.1997 74.5108 19.6273C74.5108 17.2121 75.6373 15.2668 77.888 15.2668C79.3993 15.2668 80.4604 16.3018 80.75 17.5876C80.8141 17.8708 80.8141 18.1848 80.8141 18.4667V20.4744V20.4748Z" fill="#00856F"/>
<path d="M100.428 27.2645V12.5573H95.5393V27.2645H100.428H100.428ZM97.9844 10.5496C99.6888 10.5496 100.75 9.4202 100.75 8.00885C100.718 6.56546 99.6888 5.46765 98.0169 5.46765C96.3437 5.46765 95.251 6.56546 95.251 8.00885C95.251 9.4202 96.3116 10.5496 97.9524 10.5496H97.984H97.9844ZM103.133 27.2645H108.021V19.0523C108.021 18.6132 108.054 18.1732 108.183 17.8597C108.536 16.981 109.34 16.0716 110.691 16.0716C112.459 16.0716 113.167 17.4201 113.167 19.3975V27.2645H118.055V18.8319C118.055 14.3146 115.644 12.2126 112.428 12.2126C109.791 12.2126 108.633 13.6863 107.989 14.6901H108.022V12.5577H103.134C103.198 13.9375 103.133 27.265 103.133 27.265V27.2645Z" fill="white"/>
</g>
<defs>
<clipPath id="clip0_1740_348">
<rect width="123" height="32.5704" fill="white"/>
</clipPath>
</defs>
</svg>
