<svg width="20" height="20" viewBox="0 0 20 20" fill="none" xmlns="http://www.w3.org/2000/svg">
<path d="M13.8337 11.6666C13.667 11.5833 12.5837 11.0833 12.417 10.9999C12.2503 10.9166 12.0837 10.9166 11.917 11.0833C11.7503 11.2499 11.417 11.7499 11.2503 11.9166C11.167 12.0833 11.0003 12.0833 10.8337 11.9999C10.2503 11.7499 9.66699 11.4166 9.16699 10.9999C8.75033 10.5833 8.33366 10.0833 8.00033 9.58325C7.91699 9.41659 8.00033 9.24992 8.08366 9.16659C8.16699 9.08325 8.25033 8.91659 8.41699 8.83325C8.50033 8.74992 8.58366 8.58325 8.58366 8.49992C8.66699 8.41658 8.66699 8.24992 8.58366 8.16659C8.50033 8.08325 8.08366 7.08325 7.91699 6.66659C7.83366 6.08325 7.66699 6.08325 7.50033 6.08325C7.41699 6.08325 7.25033 6.08325 7.08366 6.08325C6.91699 6.08325 6.66699 6.24992 6.58366 6.33325C6.08366 6.83325 5.83366 7.41659 5.83366 8.08325C5.91699 8.83325 6.16699 9.58325 6.66699 10.2499C7.58366 11.5833 8.75033 12.6666 10.167 13.3333C10.5837 13.4999 10.917 13.6666 11.3337 13.7499C11.7503 13.9166 12.167 13.9166 12.667 13.8333C13.2503 13.7499 13.7503 13.3333 14.0837 12.8333C14.2503 12.4999 14.2503 12.1666 14.167 11.8333C14.167 11.8333 14.0003 11.7499 13.8337 11.6666ZM15.917 4.08325C12.667 0.833252 7.41699 0.833252 4.16699 4.08325C1.50033 6.74992 1.00033 10.8333 2.83366 14.0833L1.66699 18.3333L6.08366 17.1666C7.33366 17.8333 8.66699 18.1666 10.0003 18.1666C14.5837 18.1666 18.2503 14.4999 18.2503 9.91658C18.3337 7.74992 17.417 5.66659 15.917 4.08325ZM13.667 15.7499C12.5837 16.4166 11.3337 16.8333 10.0003 16.8333C8.75033 16.8333 7.58366 16.4999 6.50033 15.9166L6.25033 15.7499L3.66699 16.4166L4.33366 13.9166L4.16699 13.6666C2.16699 10.3333 3.16699 6.16659 6.41699 4.08325C9.66699 1.99992 13.8337 3.08325 15.8337 6.24992C17.8337 9.49992 16.917 13.7499 13.667 15.7499Z" fill="white"/>
</svg>
